<?xml version="1.0" encoding="iso-8859-1"?>
<!-- Generator: Adobe Illustrator 19.0.0, SVG Export Plug-In . SVG Version: 6.00 Build 0)  -->
<svg version="1.1" id="Layer_1" xmlns="http://www.w3.org/2000/svg" xmlns:xlink="http://www.w3.org/1999/xlink" x="0px" y="0px"
	 viewBox="0 0 398.93 398.93" style="enable-background:new 0 0 398.93 398.93;" xml:space="preserve">
<g>
	<path style="fill:#F7CF52;" d="M365.21,35.306c-45.05-45.94-119.51-47.11-165.91-2.52c-38.13,36.65-46.18,92.43-24.17,137.16
		l-14.56,14.56l-0.19-0.18c-6.02-6.03-15.79-6.03-21.82,0c-3.01,3.01-4.52,6.97-4.52,10.91c0,3.96,1.51,7.9,4.52,10.92l0.18,0.18
		L0,345.066l3.22,24.06l2.07,15.53l2.79,0.82l45.7,13.37l23.39-7.79l7.79-23.38l23.38-7.8l7.8-23.38l23.38-7.79l7.8-23.39
		l23.38-7.79l7.79-23.38l14.03-14.03l0.18,0.18c6.03,6.02,15.8,6.02,21.83,0c3.01-3.02,4.52-6.96,4.52-10.92
		c0-3.94-1.51-7.9-4.52-10.91l-0.18-0.18l14.56-14.56c44.05,21.68,98.82,14.19,135.48-22.46
		C410.17,155.486,410.44,81.426,365.21,35.306z M280.99,206.046c-48.7,0-88.19-39.48-88.19-88.18s39.49-88.18,88.19-88.18
		s88.18,39.48,88.18,88.18C369.17,166.566,329.69,206.046,280.99,206.046z"/>
	<path style="fill:#DDB74B;" d="M280.99,29.686c48.7,0,88.18,39.48,88.18,88.18s-39.48,88.18-88.18,88.18s-88.19-39.48-88.19-88.18
		S232.29,29.686,280.99,29.686z M322.79,113.966c10.45-10.45,10.45-27.45,0-37.9c-10.45-10.46-27.45-10.46-37.91,0
		c-10.45,10.45-10.45,27.45,0,37.9C295.34,124.426,312.34,124.426,322.79,113.966z"/>
	<polygon style="fill:#DDB74B;" points="198.06,195.506 8.08,385.476 5.29,384.656 3.22,369.126 187.45,184.896 	"/>
</g>
<g>
</g>
<g>
</g>
<g>
</g>
<g>
</g>
<g>
</g>
<g>
</g>
<g>
</g>
<g>
</g>
<g>
</g>
<g>
</g>
<g>
</g>
<g>
</g>
<g>
</g>
<g>
</g>
<g>
</g>
</svg>
