<?xml version="1.0" encoding="iso-8859-1"?>
<!-- Generator: Adobe Illustrator 19.0.0, SVG Export Plug-In . SVG Version: 6.00 Build 0)  -->
<svg version="1.1" id="Layer_1" xmlns="http://www.w3.org/2000/svg" xmlns:xlink="http://www.w3.org/1999/xlink" x="0px" y="0px"
	 viewBox="0 0 380.969 380.969" style="enable-background:new 0 0 380.969 380.969;" xml:space="preserve">
<g>
	<g>
		<rect x="35.178" y="243.188" style="fill:#C3C6C8;" width="338.291" height="52.914"/>
		<polygon style="opacity:0.2;fill:#FFFFFF;enable-background:new    ;" points="151.912,243.188 98.996,296.103 191.193,296.103 
			244.109,243.188 		"/>
		<polygon style="opacity:0.2;fill:#FFFFFF;enable-background:new    ;" points="338.764,243.188 285.848,296.103 342.875,296.103 
			373.469,265.509 373.469,243.188 		"/>
		<g>
			<path style="fill:#AF8400;" d="M64.146,199.351c0.268-2.737-1.762-4.977-4.512-4.977h-38.91c-2.75,0-4.781,2.239-4.514,4.977
				l4.785,40.861c0.27,2.737,2.738,4.977,5.488,4.977h27.389c2.75,0,5.221-2.239,5.488-4.977L64.146,199.351z"/>
			<path style="fill:#AF8400;" d="M70.828,187.927c0-2.75-2.25-5-5-5H14.531c-2.75,0-5,2.25-5,5v7.91c0,2.75,2.25,5,5,5h51.297
				c2.75,0,5-2.25,5-5V187.927z"/>
		</g>
		<g>
			<path style="fill:#7D868C;" d="M268.799,334.854c0,5.5-4.5,10-10,10h-43c-5.5,0-10-4.5-10-10v-53.332
				c0-5.5,2.148-13.954,4.773-18.788l4.213-7.758c2.625-4.834,9.271-8.788,14.771-8.788h15.484c5.5,0,12.148,3.954,14.773,8.788
				l4.213,7.758c2.625,4.834,4.771,13.288,4.771,18.788v53.332H268.799z"/>
			<g>
				<circle style="fill:#C3C6C8;" cx="237.299" cy="268.855" r="9.834"/>
			</g>
		</g>
		<path style="fill:#AF8400;" d="M35.178,357.05v-15.195c0-5.5,4.5-10,10-10h318.291c5.5,0,10,4.5,10,10v15.195H35.178z"/>
	</g>
	<g>
		<path style="fill:#C3C6C8;" d="M171.135,23.919c52.738,0,95.492,42.754,95.492,95.491c0,23.767-8.703,45.486-23.066,62.198
			c4.318,12.429,12.285,23.147,22.65,30.84c-6.578,2.248-13.627,3.487-20.965,3.487c-12.564,0-24.283-3.586-34.217-9.769
			c-12.145,5.596-25.648,8.739-39.895,8.739c-52.744,0-95.498-42.754-95.498-95.496C75.637,66.673,118.391,23.919,171.135,23.919z"
			/>
	</g>
	<path style="fill:#071C2C;" d="M330.759,320.484c4.143,0,7.5-3.357,7.5-7.5v-9.382h35.21c4.143,0,7.5-3.357,7.5-7.5v-52.914
		c0-4.143-3.357-7.5-7.5-7.5h-11.588c-0.142-4.019-3.434-7.233-7.486-7.233h-16.136v-20.851h16.136c4.143,0,7.5-3.357,7.5-7.5
		s-3.357-7.5-7.5-7.5h-47.269c-4.143,0-7.5,3.357-7.5,7.5s3.357,7.5,7.5,7.5h16.133v20.851h-16.133
		c-4.053,0-7.345,3.215-7.486,7.233h-6.005v-34.961h-15v34.961H67.441l3.961-33.814h1.456c4.143,0,7.5-3.357,7.5-7.5v-18.557
		c0-4.143-3.357-7.5-7.5-7.5H7.5c-4.143,0-7.5,3.357-7.5,7.5v18.557c0,4.143,3.357,7.5,7.5,7.5h1.455l4.586,39.155
		c0.687,6.545,6.356,11.659,12.943,11.659h1.193v43.414c0,4.143,3.357,7.5,7.5,7.5h118.331v9.382c0,4.143,3.357,7.5,7.5,7.5
		s7.5-3.357,7.5-7.5v-9.382h29.79v20.752H45.178c-9.649,0-17.5,7.851-17.5,17.5v15.195c0,4.143,3.357,7.5,7.5,7.5h338.291
		c4.143,0,7.5-3.357,7.5-7.5v-15.195c0-9.649-7.851-17.5-17.5-17.5h-69.834v-20.752h29.624v9.382
		C323.259,317.128,326.616,320.484,330.759,320.484z M237.299,266.521c1.287,0,2.334,1.047,2.334,2.334
		c0,1.287-1.047,2.334-2.334,2.334s-2.334-1.047-2.334-2.334C234.965,267.568,236.012,266.521,237.299,266.521z M213.299,281.522
		c0-4.393,1.638-10.74,3.983-15.438c5.608-11.231,9.385-12.287,11.626-12.386c-5.326,2.961-8.943,8.642-8.943,15.156
		c0,9.558,7.776,17.334,17.334,17.334s17.334-7.776,17.334-17.334c0-6.515-3.617-12.195-8.943-15.156
		c2.241,0.099,6.018,1.154,11.626,12.386c2.346,4.697,3.983,11.045,3.983,15.438v42.832h-48L213.299,281.522L213.299,281.522z
		 M15,186.874v-3.557h50.358v3.557H15z M30.091,237.688h-1.839l-4.194-35.814H56.3l-3.96,33.814H35.178
		C33.212,235.688,31.428,236.451,30.091,237.688z M42.678,288.603v-37.914h166.287c-1.744,2.482-3.437,5.358-5.103,8.695
		c-3.38,6.769-5.563,15.458-5.563,22.139v7.08H42.678z M363.469,339.354c1.355,0,2.5,1.145,2.5,2.5v7.695H42.678v-7.695
		c0-1.355,1.145-2.5,2.5-2.5H363.469z M276.299,324.354v-20.752h2.336v20.752H276.299z M276.299,288.603v-7.08
		c0-6.681-2.184-15.37-5.563-22.139c-1.666-3.337-3.358-6.213-5.103-8.695h100.336v37.914H276.299z M210.994,88.094
		c4.971,0,9-4.029,9-9s-4.029-9-9-9s-9,4.029-9,9S206.023,88.094,210.994,88.094z M187.994,130.427c0,4.971,4.029,9,9,9s9-4.029,9-9
		s-4.029-9-9-9S187.994,125.456,187.994,130.427z M140.746,168.26h36.5v-15h-36.5V168.26z M180.994,88.094c4.971,0,9-4.029,9-9
		s-4.029-9-9-9s-9,4.029-9,9S176.023,88.094,180.994,88.094z M140.746,137.927h36.5v-15h-36.5V137.927z M226.994,121.427
		c-4.971,0-9,4.029-9,9c0,4.971,4.029,9,9,9s9-4.029,9-9S231.965,121.427,226.994,121.427z M207.996,112.094h36.5v-15h-36.5V112.094
		z M120.996,139.427c4.971,0,9-4.029,9-9s-4.029-9-9-9s-9,4.029-9,9C111.996,135.398,116.025,139.427,120.996,139.427z
		 M120.996,169.76c4.971,0,9-4.029,9-9s-4.029-9-9-9s-9,4.029-9,9S116.025,169.76,120.996,169.76z M159.996,112.094h36.5v-15h-36.5
		V112.094z M171.135,222.406c13.653,0,26.89-2.635,39.409-7.84c10.616,5.813,22.53,8.869,34.702,8.869
		c7.967,0,15.837-1.309,23.391-3.891c2.636-0.9,4.556-3.189,4.984-5.942c0.43-2.753-0.703-5.517-2.94-7.177
		c-8.199-6.085-14.552-14.131-18.547-23.439c14.214-18.097,21.993-40.497,21.993-63.576c0-56.789-46.202-102.991-102.992-102.991
		c-56.793,0-102.998,46.202-102.998,102.991C68.137,176.202,114.342,222.406,171.135,222.406z M171.135,31.419
		c48.52,0,87.992,39.473,87.992,87.991c0,21.01-7.548,41.362-21.254,57.31c-1.742,2.026-2.274,4.826-1.397,7.351
		c3.113,8.959,7.889,17.116,14.068,24.12c-1.757,0.163-3.524,0.245-5.298,0.245c-10.715,0-21.177-2.986-30.254-8.636
		c-1.208-0.752-2.583-1.133-3.963-1.133c-1.068,0-2.14,0.228-3.139,0.688c-11.595,5.342-23.961,8.051-36.756,8.051
		c-48.522,0-87.998-39.475-87.998-87.996C83.137,70.892,122.612,31.419,171.135,31.419z M150.996,88.094c4.971,0,9-4.029,9-9
		s-4.029-9-9-9s-9,4.029-9,9S146.025,88.094,150.996,88.094z M120.996,88.094c4.971,0,9-4.029,9-9s-4.029-9-9-9s-9,4.029-9,9
		S116.025,88.094,120.996,88.094z M148.496,97.094h-36.5v15h36.5V97.094z"/>
</g>
<g>
</g>
<g>
</g>
<g>
</g>
<g>
</g>
<g>
</g>
<g>
</g>
<g>
</g>
<g>
</g>
<g>
</g>
<g>
</g>
<g>
</g>
<g>
</g>
<g>
</g>
<g>
</g>
<g>
</g>
</svg>
