<?xml version="1.0" encoding="iso-8859-1"?>
<!-- Generator: Adobe Illustrator 19.0.0, SVG Export Plug-In . SVG Version: 6.00 Build 0)  -->
<svg version="1.1" id="Capa_1" xmlns="http://www.w3.org/2000/svg" xmlns:xlink="http://www.w3.org/1999/xlink" x="0px" y="0px"
	 viewBox="0 0 463 463" style="enable-background:new 0 0 463 463;" xml:space="preserve">
<path d="M423.5,100H311V77.013c6.662-2.258,12.141-7.442,14.611-14.293c4.388-12.191-1.958-25.681-14.147-30.073
	C288.5,24.374,260.85,20,231.5,20s-57,4.374-79.964,12.647C139.347,37.039,133,50.529,137.39,62.723
	c2.524,7.003,8.053,12.072,14.61,14.29V100H39.5C17.72,100,0,117.72,0,139.5v264C0,425.28,17.72,443,39.5,443h384
	c21.78,0,39.5-17.72,39.5-39.5v-264C463,117.72,445.28,100,423.5,100z M156.621,46.759C177.972,39.066,203.864,35,231.5,35
	s53.528,4.066,74.88,11.759c4.41,1.588,6.706,6.47,5.119,10.877c-1.213,3.365-4.427,5.625-7.999,5.625
	c-0.98,0-1.949-0.17-2.879-0.505C281.375,55.82,256.828,52,231.5,52s-49.875,3.82-69.12,10.756c-4.41,1.587-9.29-0.708-10.878-5.117
	C149.915,53.229,152.21,48.348,156.621,46.759z M167,77.022c0.155-0.052,0.31-0.099,0.465-0.154C185.121,70.504,207.862,67,231.5,67
	s46.379,3.504,64.036,9.869c0.153,0.055,0.31,0.093,0.464,0.145V100H167V77.022z M15,139.5c0-13.509,10.991-24.5,24.5-24.5h384
	c13.509,0,24.5,10.991,24.5,24.5v72c0,48.799-39.701,88.5-88.5,88.5H263v-8.5c0-12.958-10.542-23.5-23.5-23.5h-16
	c-12.958,0-23.5,10.542-23.5,23.5v8.5h-96.5C54.701,300,15,260.299,15,211.5V139.5z M248,307.5c0,4.687-3.813,8.5-8.5,8.5h-16
	c-4.687,0-8.5-3.813-8.5-8.5v-16c0-4.687,3.813-8.5,8.5-8.5h16c4.687,0,8.5,3.813,8.5,8.5V307.5z M215,329.403
	c2.638,1.027,5.503,1.597,8.5,1.597h16c2.997,0,5.862-0.57,8.5-1.597V339.5c0,4.687-3.813,8.5-8.5,8.5h-16
	c-4.687,0-8.5-3.813-8.5-8.5V329.403z M448,403.5c0,13.509-10.991,24.5-24.5,24.5h-384C25.991,428,15,417.009,15,403.5V265.119
	C33.171,295,66.044,315,103.5,315H200v24.5c0,12.958,10.542,23.5,23.5,23.5h16c12.958,0,23.5-10.542,23.5-23.5V315h96.5
	c37.456,0,70.329-20,88.5-49.881V403.5z"/>
<g>
</g>
<g>
</g>
<g>
</g>
<g>
</g>
<g>
</g>
<g>
</g>
<g>
</g>
<g>
</g>
<g>
</g>
<g>
</g>
<g>
</g>
<g>
</g>
<g>
</g>
<g>
</g>
<g>
</g>
</svg>
