<?xml version="1.0" encoding="iso-8859-1"?>
<!-- Generator: Adobe Illustrator 19.0.0, SVG Export Plug-In . SVG Version: 6.00 Build 0)  -->
<svg version="1.1" id="Layer_1" xmlns="http://www.w3.org/2000/svg" xmlns:xlink="http://www.w3.org/1999/xlink" x="0px" y="0px"
	 viewBox="0 0 504.32 504.32" style="enable-background:new 0 0 504.32 504.32;" xml:space="preserve">
<g transform="translate(5 1)">
	<polygon style="fill:#F2EDDA;" points="33.4,345.454 33.4,319.854 33.4,200.387 50.467,191.854 33.4,183.32 33.4,4.12 391.8,4.12 
		400.333,21.187 408.867,4.12 460.067,4.12 460.067,115.054 425.933,132.12 460.067,149.187 460.067,208.92 460.067,379.587 
		443,388.12 460.067,396.654 460.067,499.054 391.8,499.054 152.867,499.054 135.8,464.92 118.733,499.054 33.4,499.054 	"/>
	<path style="fill:#FFD0A1;" d="M178.467,217.454c0-0.853-1.707-23.04,0-34.133c15.36,5.12,36.693,8.533,68.267,8.533
		s52.907-4.267,68.267-8.533c1.707,17.067,0,34.133,0,34.133s-8.533,93.867-68.267,93.867S178.467,217.454,178.467,217.454"/>
	<path style="fill:#AE938D;" d="M315,182.467L315,182.467c-15.36,5.973-36.693,9.387-68.267,9.387s-52.907-4.267-68.267-8.533
		v-0.853c0,0,8.533-75.947,34.133-75.947s17.067,8.533,34.133,8.533s8.533-8.533,34.133-8.533S315,182.467,315,182.467"/>
</g>
<path style="fill:#51565F;" d="M465.067,504.32h-307.2c-1.707,0-3.413-0.853-3.413-2.56L140.8,475.307l-13.653,26.453
	c-0.853,1.707-2.56,2.56-3.413,2.56H38.4c-2.56,0-4.267-1.707-4.267-4.267v-179.2l0,0V201.387c0-1.707,0.853-3.413,2.56-3.413
	l9.387-5.12l-9.387-5.12c-1.707-0.853-2.56-2.56-2.56-3.413V73.387c0-2.56,1.707-4.267,4.267-4.267s4.267,1.707,4.267,4.267V181.76
	l14.507,7.68c1.707,0.853,2.56,2.56,2.56,3.413c0,0.853-0.853,3.413-2.56,3.413l-14.507,7.68v111.787l29.013-6.827
	c2.56-0.853,4.267,0.853,5.12,3.413c0.853,2.56-0.853,4.267-3.413,5.12l-30.72,7.68v17.92h12.8c2.56,0,4.267,1.707,4.267,4.267
	c0,2.56-1.707,4.267-4.267,4.267h-12.8V496.64h78.507l16.213-31.573c1.707-2.56,5.973-2.56,7.68,0l16.213,31.573h232.107v-13.653
	c0-2.56,1.707-4.267,4.267-4.267c2.56,0,4.267,1.707,4.267,4.267v12.8h59.733v-95.573l-14.507-7.68
	c-1.707-0.853-2.56-2.56-2.56-3.413s0.853-3.413,2.56-3.413l14.507-7.68v-163.84h-12.8c-2.56,0-4.267-1.707-4.267-4.267
	c0-2.56,1.707-4.267,4.267-4.267h12.8v-52.907l-31.573-16.213c-1.707-0.853-2.56-2.56-2.56-3.413c0-0.853,0.853-3.413,2.56-3.413
	l31.573-16.213V9.387H417.28l-7.68,14.507c-1.707,2.56-5.973,2.56-7.68,0l-7.68-14.507H45.227l28.16,56.32
	c28.16-30.72,81.067-38.4,83.627-39.253c2.56,0,4.267,1.707,5.12,3.413c0,2.56-1.707,4.267-3.413,5.12
	c-0.853,0-58.027,8.533-82.773,40.96c-0.853,0.853-2.56,1.707-3.413,1.707c-1.707,0-2.56-0.853-3.413-2.56L34.987,6.827V5.974
	c0-0.853,0-0.853,0-1.707s0-0.853,0.853-1.707l0,0l0,0c0-0.853,0.853-0.853,0.853-1.707c0,0,0.853-0.853,1.707-0.853l0,0l0,0h0.853
	h358.4c1.707,0,3.413,0.853,3.413,2.56l5.12,9.387l5.12-9.387C412.16,0.853,413.867,0,414.72,0h51.2c2.56,0,4.267,1.707,4.267,4.267
	V115.2c0,1.707-0.853,3.413-2.56,3.413l-26.453,13.653l26.453,13.653c1.707,0.853,2.56,2.56,2.56,3.413v230.4
	c0,1.707-0.853,3.413-2.56,3.413l-9.387,5.12l9.387,5.12c1.707,0.853,2.56,2.56,2.56,3.413v102.4
	C469.333,502.614,467.627,504.32,465.067,504.32z M294.4,418.987h-85.333c-2.56,0-4.267-1.707-4.267-4.267s1.707-4.267,4.267-4.267
	H294.4c2.56,0,4.267,1.707,4.267,4.267S296.96,418.987,294.4,418.987z M345.6,384.854H157.867c-2.56,0-4.267-1.707-4.267-4.267
	c0-2.56,1.707-4.267,4.267-4.267H345.6c2.56,0,4.267,1.707,4.267,4.267C349.867,383.147,348.16,384.854,345.6,384.854z
	 M251.733,316.587c-63.147,0-72.533-93.867-72.533-98.133c0-2.56,1.707-4.267,4.267-4.267s4.267,1.707,4.267,4.267
	c0,0.853,8.533,89.6,64,89.6s64-88.747,64-89.6c0-2.56,2.56-4.267,4.267-4.267c2.56,0,4.267,2.56,4.267,4.267
	C324.267,222.72,314.88,316.587,251.733,316.587z M277.333,248.32H268.8c-2.56,0-4.267-1.707-4.267-4.267
	c0-2.56,1.707-4.267,4.267-4.267h8.533c2.56,0,4.267,1.707,4.267,4.267C281.6,246.614,279.893,248.32,277.333,248.32z
	 M234.667,248.32h-8.533c-2.56,0-4.267-1.707-4.267-4.267c0-2.56,1.707-4.267,4.267-4.267h8.533c2.56,0,4.267,1.707,4.267,4.267
	C238.933,246.614,237.227,248.32,234.667,248.32z M251.733,197.12c-96.427,0-105.813-35.84-106.667-37.547
	c-0.853-2.56,0.853-4.267,3.413-5.12c2.56-0.853,4.267,0.853,5.12,3.413c0,0,4.267,11.947,26.453,20.48
	c2.56-17.92,11.947-75.093,37.547-75.093c15.36,0,19.627,3.413,23.893,5.973c2.56,1.707,4.267,2.56,10.24,2.56
	s7.68-0.853,10.24-2.56c3.413-2.56,8.533-5.973,23.893-5.973c25.6,0,34.987,57.173,37.547,75.093
	c23.04-8.533,26.453-20.48,26.453-20.48c0.853-2.56,2.56-3.413,5.12-2.56c2.56,0.853,3.413,2.56,3.413,5.12
	C357.547,161.28,348.16,197.12,251.733,197.12z M187.733,180.907c14.507,4.267,34.987,7.68,64,7.68s49.493-3.413,64-7.68
	c-3.413-28.16-14.507-69.12-29.867-69.12c-12.8,0-16.213,1.707-18.773,4.267c-2.56,1.707-5.973,4.267-15.36,4.267
	c-9.387,0-11.947-2.56-15.36-4.267c-2.56-1.707-5.973-4.267-18.773-4.267C202.24,111.787,191.147,152.747,187.733,180.907z"/>
<g>
</g>
<g>
</g>
<g>
</g>
<g>
</g>
<g>
</g>
<g>
</g>
<g>
</g>
<g>
</g>
<g>
</g>
<g>
</g>
<g>
</g>
<g>
</g>
<g>
</g>
<g>
</g>
<g>
</g>
</svg>
